<svg width="72" height="24" viewBox="0 0 72 24" fill="none" xmlns="http://www.w3.org/2000/svg">
<path d="M28.444 16.096C27.932 16.096 27.504 16.064 27.16 16C26.824 15.936 26.556 15.836 26.356 15.7C26.164 15.556 26.02 15.364 25.924 15.124C25.836 14.884 25.776 14.584 25.744 14.224C25.72 13.864 25.708 13.432 25.708 12.928C25.708 12.432 25.72 12.004 25.744 11.644C25.776 11.284 25.836 10.984 25.924 10.744C26.02 10.504 26.164 10.316 26.356 10.18C26.556 10.036 26.824 9.936 27.16 9.88C27.504 9.816 27.932 9.784 28.444 9.784C28.964 9.784 29.392 9.816 29.728 9.88C30.072 9.936 30.34 10.036 30.532 10.18C30.732 10.316 30.876 10.504 30.964 10.744C31.06 10.984 31.12 11.284 31.144 11.644C31.176 12.004 31.192 12.432 31.192 12.928C31.192 13.432 31.176 13.864 31.144 14.224C31.12 14.584 31.06 14.884 30.964 15.124C30.876 15.364 30.732 15.556 30.532 15.7C30.34 15.836 30.072 15.936 29.728 16C29.392 16.064 28.964 16.096 28.444 16.096ZM28.444 15.028C28.812 15.028 29.096 15.004 29.296 14.956C29.496 14.908 29.636 14.812 29.716 14.668C29.804 14.524 29.856 14.312 29.872 14.032C29.896 13.752 29.908 13.384 29.908 12.928C29.908 12.472 29.896 12.108 29.872 11.836C29.856 11.556 29.804 11.344 29.716 11.2C29.636 11.056 29.496 10.964 29.296 10.924C29.096 10.876 28.812 10.852 28.444 10.852C28.084 10.852 27.804 10.876 27.604 10.924C27.404 10.964 27.26 11.056 27.172 11.2C27.092 11.344 27.04 11.556 27.016 11.836C27 12.108 26.992 12.472 26.992 12.928C26.992 13.384 27 13.752 27.016 14.032C27.04 14.312 27.092 14.524 27.172 14.668C27.26 14.812 27.404 14.908 27.604 14.956C27.804 15.004 28.084 15.028 28.444 15.028ZM34.9863 16.096C34.7463 16.096 34.4863 16.088 34.2063 16.072C33.9343 16.056 33.6663 16.036 33.4023 16.012C33.1383 15.988 32.9023 15.96 32.6943 15.928V14.92C32.8303 14.928 32.9823 14.94 33.1503 14.956C33.3263 14.972 33.5103 14.984 33.7023 14.992C33.8943 15 34.0823 15.008 34.2663 15.016C34.4503 15.024 34.6303 15.028 34.8063 15.028C35.1903 15.028 35.4663 15.004 35.6343 14.956C35.8103 14.908 35.9223 14.828 35.9703 14.716C36.0263 14.596 36.0543 14.444 36.0543 14.26C36.0543 14.052 36.0343 13.9 35.9943 13.804C35.9623 13.708 35.8983 13.644 35.8023 13.612C35.7063 13.58 35.5583 13.552 35.3583 13.528L33.8703 13.348C33.4863 13.308 33.1943 13.22 32.9943 13.084C32.8023 12.94 32.6703 12.748 32.5983 12.508C32.5343 12.26 32.5023 11.96 32.5023 11.608C32.5023 11.2 32.5583 10.876 32.6703 10.636C32.7903 10.388 32.9543 10.204 33.1623 10.084C33.3783 9.964 33.6383 9.884 33.9423 9.844C34.2463 9.804 34.5783 9.784 34.9383 9.784C35.1623 9.784 35.3943 9.792 35.6343 9.808C35.8823 9.824 36.1183 9.848 36.3423 9.88C36.5743 9.904 36.7743 9.932 36.9423 9.964V10.972C36.7503 10.948 36.5423 10.928 36.3183 10.912C36.0943 10.896 35.8703 10.884 35.6463 10.876C35.4303 10.86 35.2223 10.852 35.0223 10.852C34.7263 10.852 34.4823 10.868 34.2903 10.9C34.0983 10.924 33.9543 10.988 33.8583 11.092C33.7703 11.188 33.7263 11.356 33.7263 11.596C33.7263 11.78 33.7383 11.92 33.7623 12.016C33.7943 12.104 33.8543 12.168 33.9423 12.208C34.0383 12.24 34.1823 12.268 34.3743 12.292L35.9823 12.484C36.2863 12.516 36.5303 12.58 36.7143 12.676C36.9063 12.764 37.0463 12.928 37.1343 13.168C37.2303 13.4 37.2783 13.756 37.2783 14.236C37.2783 14.636 37.2263 14.96 37.1223 15.208C37.0263 15.448 36.8783 15.636 36.6783 15.772C36.4783 15.9 36.2343 15.984 35.9463 16.024C35.6663 16.072 35.3463 16.096 34.9863 16.096ZM40.8309 16.096C40.4069 16.096 40.0589 16.048 39.7869 15.952C39.5229 15.848 39.3189 15.696 39.1749 15.496C39.0389 15.296 38.9469 15.048 38.8989 14.752C38.8509 14.456 38.8269 14.108 38.8269 13.708V9.88H40.0989V13.204C40.0989 13.604 40.1109 13.924 40.1349 14.164C40.1669 14.396 40.2269 14.572 40.3149 14.692C40.4029 14.804 40.5309 14.876 40.6989 14.908C40.8749 14.94 41.1069 14.956 41.3949 14.956C41.7149 14.956 41.9709 14.916 42.1629 14.836C42.3549 14.756 42.4949 14.636 42.5829 14.476C42.6789 14.316 42.7389 14.116 42.7629 13.876C42.7869 13.636 42.7989 13.356 42.7989 13.036V9.88H44.0829V16H42.9069L42.8589 15.184H42.7749C42.6869 15.376 42.5589 15.54 42.3909 15.676C42.2309 15.812 42.0229 15.916 41.7669 15.988C41.5109 16.06 41.1989 16.096 40.8309 16.096ZM48.2673 16.096C47.7953 16.096 47.4033 16.056 47.0913 15.976C46.7873 15.888 46.5433 15.764 46.3593 15.604C46.1753 15.436 46.0393 15.228 45.9513 14.98C45.8633 14.724 45.8033 14.428 45.7713 14.092C45.7473 13.748 45.7353 13.36 45.7353 12.928C45.7353 12.504 45.7513 12.124 45.7833 11.788C45.8153 11.452 45.8793 11.16 45.9753 10.912C46.0793 10.656 46.2233 10.448 46.4073 10.288C46.5913 10.12 46.8313 9.996 47.1273 9.916C47.4233 9.828 47.7953 9.784 48.2433 9.784C48.5313 9.784 48.8313 9.8 49.1433 9.832C49.4633 9.864 49.7273 9.904 49.9353 9.952V10.96C49.7593 10.928 49.5393 10.904 49.2753 10.888C49.0193 10.864 48.7833 10.852 48.5673 10.852C48.2233 10.852 47.9473 10.88 47.7393 10.936C47.5393 10.992 47.3873 11.096 47.2833 11.248C47.1793 11.4 47.1073 11.612 47.0673 11.884C47.0353 12.156 47.0193 12.508 47.0193 12.94C47.0193 13.38 47.0353 13.74 47.0673 14.02C47.1073 14.3 47.1793 14.512 47.2833 14.656C47.3953 14.8 47.5553 14.9 47.7633 14.956C47.9713 15.004 48.2473 15.028 48.5913 15.028C48.7913 15.028 49.0153 15.02 49.2633 15.004C49.5193 14.98 49.7633 14.952 49.9953 14.92V15.928C49.7793 15.976 49.5113 16.016 49.1913 16.048C48.8713 16.08 48.5633 16.096 48.2673 16.096ZM53.0666 16.096C52.6506 16.096 52.2986 16.04 52.0106 15.928C51.7306 15.816 51.5186 15.632 51.3746 15.376C51.2306 15.112 51.1586 14.756 51.1586 14.308C51.1586 13.836 51.2146 13.464 51.3266 13.192C51.4386 12.912 51.6306 12.712 51.9026 12.592C52.1746 12.472 52.5586 12.412 53.0546 12.412C53.1346 12.412 53.2506 12.416 53.4026 12.424C53.5626 12.424 53.7426 12.428 53.9426 12.436C54.1506 12.436 54.3546 12.44 54.5546 12.448C54.7626 12.448 54.9506 12.452 55.1186 12.46V12.172C55.1186 11.86 55.0986 11.616 55.0586 11.44C55.0186 11.264 54.9346 11.136 54.8066 11.056C54.6866 10.968 54.5106 10.912 54.2786 10.888C54.0466 10.864 53.7466 10.852 53.3786 10.852C53.2026 10.852 52.9946 10.86 52.7546 10.876C52.5226 10.884 52.2946 10.896 52.0706 10.912C51.8466 10.928 51.6746 10.948 51.5546 10.972V9.964C51.8826 9.9 52.2426 9.856 52.6346 9.832C53.0266 9.8 53.4186 9.784 53.8106 9.784C54.2666 9.784 54.6466 9.812 54.9506 9.868C55.2626 9.924 55.5146 10.012 55.7066 10.132C55.8986 10.252 56.0426 10.408 56.1386 10.6C56.2346 10.792 56.3026 11.024 56.3426 11.296C56.3826 11.56 56.4026 11.864 56.4026 12.208V16H55.2266L55.1786 15.208H55.1066C54.9706 15.464 54.7866 15.66 54.5546 15.796C54.3306 15.924 54.0866 16.004 53.8226 16.036C53.5586 16.076 53.3066 16.096 53.0666 16.096ZM53.6306 15.064C53.8306 15.064 54.0106 15.052 54.1706 15.028C54.3386 14.996 54.4826 14.948 54.6026 14.884C54.7306 14.812 54.8306 14.716 54.9026 14.596C54.9746 14.46 55.0266 14.304 55.0586 14.128C55.0986 13.952 55.1186 13.744 55.1186 13.504V13.288H53.3666C53.1026 13.288 52.8986 13.308 52.7546 13.348C52.6186 13.388 52.5266 13.472 52.4786 13.6C52.4306 13.728 52.4066 13.924 52.4066 14.188C52.4066 14.436 52.4346 14.624 52.4906 14.752C52.5466 14.872 52.6626 14.956 52.8386 15.004C53.0226 15.044 53.2866 15.064 53.6306 15.064ZM60.2475 16.096C59.8395 16.096 59.4955 16.048 59.2155 15.952C58.9355 15.848 58.7115 15.68 58.5435 15.448C58.3755 15.208 58.2515 14.884 58.1715 14.476C58.0995 14.068 58.0635 13.56 58.0635 12.952C58.0635 12.336 58.0995 11.824 58.1715 11.416C58.2515 11.008 58.3715 10.688 58.5315 10.456C58.6995 10.216 58.9195 10.044 59.1915 9.94C59.4635 9.836 59.7995 9.784 60.1995 9.784C60.4955 9.784 60.7635 9.808 61.0035 9.856C61.2435 9.904 61.4555 9.988 61.6395 10.108C61.8315 10.22 61.9835 10.384 62.0955 10.6H62.1795V7.084H63.4515V16H62.2755L62.2275 15.196H62.1555C62.0355 15.452 61.8715 15.644 61.6635 15.772C61.4635 15.9 61.2395 15.984 60.9915 16.024C60.7435 16.072 60.4955 16.096 60.2475 16.096ZM60.7635 14.968C61.1155 14.968 61.3875 14.924 61.5795 14.836C61.7795 14.74 61.9195 14.592 61.9995 14.392C62.0795 14.208 62.1275 13.996 62.1435 13.756C62.1675 13.516 62.1795 13.236 62.1795 12.916C62.1795 12.612 62.1675 12.348 62.1435 12.124C62.1275 11.892 62.0835 11.696 62.0115 11.536C61.9235 11.32 61.7795 11.164 61.5795 11.068C61.3875 10.972 61.1155 10.924 60.7635 10.924C60.4435 10.924 60.1875 10.948 59.9955 10.996C59.8115 11.036 59.6715 11.124 59.5755 11.26C59.4875 11.388 59.4275 11.588 59.3955 11.86C59.3635 12.124 59.3475 12.484 59.3475 12.94C59.3475 13.396 59.3635 13.76 59.3955 14.032C59.4275 14.296 59.4915 14.496 59.5875 14.632C59.6835 14.768 59.8235 14.86 60.0075 14.908C60.1995 14.948 60.4515 14.968 60.7635 14.968Z" fill="#63E2B7"/>
<path d="M11 16C11 18.2091 9.20914 20 7 20C4.79086 20 3 18.2091 3 16C3 13.7909 4.79086 12 7 12C9.20914 12 11 13.7909 11 16Z" fill="#101014"/>
<path fill-rule="evenodd" clip-rule="evenodd" d="M12.5883 14.078C12.3007 14.009 12.0584 13.8162 11.9266 13.5515C11.1128 11.9178 9.51171 10.748 7.62515 10.535C7.23772 10.4913 6.91104 10.2264 6.78824 9.85632C6.66543 9.48628 6.7689 9.0786 7.05331 8.8119C10.5386 5.54361 15.0207 4 18.7311 4C18.7613 4 18.7912 4.00134 18.8208 4.00396C18.8803 4.00133 18.94 4 19 4C21.2092 4 23 5.79086 23 8C23 10.2091 21.2092 12 19 12C18.94 12 18.8803 11.9987 18.8208 11.996C18.7912 11.9987 18.7613 12 18.7311 12C17.207 12 15.1885 12.5966 13.4169 13.9091C13.1793 14.0852 12.8759 14.147 12.5883 14.078Z" fill="#101014"/>
<path d="M16.936 17.8204L14.3463 11.3463L20.8204 13.936L18.5 14.7094C18.1267 14.8338 17.8338 15.1267 17.7094 15.5L16.936 17.8204Z" fill="#63E2B7" fill-opacity="0.25" stroke="#63E2B7" stroke-width="1.5" stroke-miterlimit="11.4737" stroke-linejoin="round"/>
</svg>
