<svg width="24" height="24" viewBox="0 0 24 24" fill="none" xmlns="http://www.w3.org/2000/svg">
<g clip-path="url(#clip0_40_46)">
<g opacity="0.8">
<mask id="path-1-inside-1_40_46" fill="white">
<path d="M10 16C10 18.2091 8.20914 20 6 20C3.79086 20 2 18.2091 2 16C2 13.7909 3.79086 12 6 12C8.20914 12 10 13.7909 10 16Z"/>
</mask>
<path d="M10 16C10 18.2091 8.20914 20 6 20C3.79086 20 2 18.2091 2 16C2 13.7909 3.79086 12 6 12C8.20914 12 10 13.7909 10 16Z" fill="#63E2B7" fill-opacity="0.4"/>
<path d="M8 16C8 17.1046 7.10457 18 6 18V22C9.31371 22 12 19.3137 12 16H8ZM6 18C4.89543 18 4 17.1046 4 16H0C0 19.3137 2.68629 22 6 22V18ZM4 16C4 14.8954 4.89543 14 6 14V10C2.68629 10 0 12.6863 0 16H4ZM6 14C7.10457 14 8 14.8954 8 16H12C12 12.6863 9.31371 10 6 10V14Z" fill="#63E2B7" mask="url(#path-1-inside-1_40_46)"/>
</g>
<g opacity="0.8">
<path fill-rule="evenodd" clip-rule="evenodd" d="M11.8216 13.1056C10.861 11.1773 8.97056 9.79348 6.7373 9.54135C10.0353 6.44876 14.272 5 17.7311 5V5.01189C17.8197 5.00402 17.9094 5 18 5C19.6569 5 21 6.34315 21 8C21 9.65685 19.6569 11 18 11C17.9094 11 17.8197 10.996 17.7311 10.9881V11C15.978 11 13.7534 11.6745 11.8216 13.1056Z" fill="#326455"/>
<path d="M6.7373 9.54135L6.05328 8.8119C5.76887 9.0786 5.6654 9.48628 5.7882 9.85632C5.91101 10.2264 6.23769 10.4913 6.62512 10.535L6.7373 9.54135ZM11.8216 13.1056L10.9265 13.5515C11.0584 13.8162 11.3007 14.009 11.5883 14.078C11.8759 14.147 12.1793 14.0852 12.4169 13.9091L11.8216 13.1056ZM17.7311 5H18.7311C18.7311 4.44772 18.2834 4 17.7311 4V5ZM17.7311 5.01189H16.7311C16.7311 5.29249 16.849 5.56018 17.056 5.74961C17.263 5.93905 17.5401 6.03279 17.8196 6.00797L17.7311 5.01189ZM17.7311 10.9881L17.8196 9.99203C17.5401 9.96721 17.263 10.061 17.056 10.2504C16.849 10.4398 16.7311 10.7075 16.7311 10.9881H17.7311ZM17.7311 11V12C18.2834 12 18.7311 11.5523 18.7311 11H17.7311ZM6.62512 10.535C8.51168 10.748 10.1127 11.9178 10.9265 13.5515L12.7167 12.6597C11.6093 10.4367 9.42944 8.83894 6.84949 8.54767L6.62512 10.535ZM17.7311 4C14.0207 4 9.53861 5.54361 6.05328 8.8119L7.42133 10.2708C10.5319 7.35391 14.5234 6 17.7311 6V4ZM18.7311 5.01189V5H16.7311V5.01189H18.7311ZM17.8196 6.00797C17.8788 6.00271 17.9389 6 18 6V4C17.8798 4 17.7606 4.00533 17.6426 4.01581L17.8196 6.00797ZM18 6C19.1046 6 20 6.89543 20 8H22C22 5.79086 20.2091 4 18 4V6ZM20 8C20 9.10457 19.1046 10 18 10V12C20.2091 12 22 10.2091 22 8H20ZM18 10C17.9389 10 17.8788 9.99729 17.8196 9.99203L17.6426 11.9842C17.7606 11.9947 17.8798 12 18 12V10ZM18.7311 11V10.9881H16.7311V11H18.7311ZM12.4169 13.9091C14.1885 12.5966 16.2069 12 17.7311 12V10C15.7491 10 13.3183 10.7523 11.2263 12.3021L12.4169 13.9091Z" fill="#428E76"/>
</g>
<path d="M15.936 17.8204L13.3463 11.3463L19.8204 13.936L17.5 14.7094C17.1267 14.8338 16.8338 15.1267 16.7094 15.5L15.936 17.8204Z" stroke="#63E2B7" stroke-width="1.5" stroke-miterlimit="11.4737" stroke-linejoin="round"/>
<path d="M15.936 17.8204L13.3463 11.3463L19.8204 13.936L17.5 14.7094C17.1267 14.8338 16.8338 15.1267 16.7094 15.5L15.936 17.8204Z" stroke="#63E2B7" stroke-width="1.5" stroke-miterlimit="11.4737" stroke-linejoin="round"/>
</g>
<defs>
<clipPath id="clip0_40_46">
<rect width="24" height="24" fill="white"/>
</clipPath>
</defs>
</svg>
