<svg width="24" height="24" viewBox="0 0 24 24" fill="none" xmlns="http://www.w3.org/2000/svg">
<path d="M10 16C10 18.2091 8.20914 20 6 20C3.79086 20 2 18.2091 2 16C2 13.7909 3.79086 12 6 12C8.20914 12 10 13.7909 10 16Z" fill="white"/>
<mask id="path-2-outside-1_3_444" maskUnits="userSpaceOnUse" x="5.7373" y="4" width="17" height="11" fill="black">
<rect fill="white" x="5.7373" y="4" width="17" height="11"/>
<path fill-rule="evenodd" clip-rule="evenodd" d="M11.8217 13.1055C10.8611 11.1772 8.97057 9.79346 6.7373 9.54135C10.0353 6.44876 14.272 5 17.7311 5V5.01189C17.8197 5.00402 17.9094 5 18 5C19.6568 5 21 6.34315 21 8C21 9.65685 19.6568 11 18 11C17.9094 11 17.8197 10.996 17.7311 10.9881V11C15.978 11 13.7534 11.6744 11.8217 13.1055Z"/>
</mask>
<path fill-rule="evenodd" clip-rule="evenodd" d="M11.8217 13.1055C10.8611 11.1772 8.97057 9.79346 6.7373 9.54135C10.0353 6.44876 14.272 5 17.7311 5V5.01189C17.8197 5.00402 17.9094 5 18 5C19.6568 5 21 6.34315 21 8C21 9.65685 19.6568 11 18 11C17.9094 11 17.8197 10.996 17.7311 10.9881V11C15.978 11 13.7534 11.6744 11.8217 13.1055Z" fill="white" fill-opacity="0.4"/>
<path d="M6.7373 9.54135L6.05328 8.81189C5.76887 9.07859 5.6654 9.48627 5.7882 9.85632C5.91101 10.2264 6.2377 10.4913 6.62513 10.535L6.7373 9.54135ZM11.8217 13.1055L10.9266 13.5514C11.0584 13.8162 11.3007 14.0089 11.5883 14.0779C11.8759 14.147 12.1793 14.0851 12.4169 13.9091L11.8217 13.1055ZM17.7311 5H18.7311C18.7311 4.44772 18.2834 4 17.7311 4V5ZM17.7311 5.01189H16.7311C16.7311 5.29249 16.849 5.56018 17.056 5.74961C17.263 5.93905 17.5401 6.03279 17.8196 6.00797L17.7311 5.01189ZM17.7311 10.9881L17.8196 9.99203C17.5401 9.96721 17.263 10.061 17.056 10.2504C16.849 10.4398 16.7311 10.7075 16.7311 10.9881H17.7311ZM17.7311 11V12C18.2834 12 18.7311 11.5523 18.7311 11H17.7311ZM6.62513 10.535C8.5117 10.748 10.1128 11.9178 10.9266 13.5514L12.7168 12.6597C11.6094 10.4367 9.42945 8.83891 6.84948 8.54766L6.62513 10.535ZM17.7311 4C14.0207 4 9.53861 5.54361 6.05328 8.81189L7.42133 10.2708C10.5319 7.35391 14.5234 6 17.7311 6V4ZM18.7311 5.01189V5H16.7311V5.01189H18.7311ZM17.8196 6.00797C17.8788 6.00271 17.9389 6 18 6V4C17.8798 4 17.7606 4.00533 17.6426 4.01581L17.8196 6.00797ZM18 6C19.1046 6 20 6.89543 20 8H22C22 5.79086 20.2091 4 18 4V6ZM20 8C20 9.10457 19.1046 10 18 10V12C20.2091 12 22 10.2091 22 8H20ZM18 10C17.9389 10 17.8788 9.99729 17.8196 9.99203L17.6426 11.9842C17.7606 11.9947 17.8798 12 18 12V10ZM18.7311 11V10.9881H16.7311V11H18.7311ZM12.4169 13.9091C14.1885 12.5966 16.2069 12 17.7311 12V10C15.7491 10 13.3183 10.7523 11.2264 12.302L12.4169 13.9091Z" fill="white" fill-opacity="0.4" mask="url(#path-2-outside-1_3_444)"/>
</svg>
