<svg width="24" height="24" viewBox="0 0 24 24" fill="none" xmlns="http://www.w3.org/2000/svg">
<g clip-path="url(#clip0_108_188)">
<path d="M6.58579 9H5C4.44772 9 4 9.44772 4 10V14C4 14.5523 4.44772 15 5 15H6.58579C6.851 15 7.10536 15.1054 7.29289 15.2929L9.29289 17.2929C9.92286 17.9229 11 17.4767 11 16.5858V7.41422C11 6.52331 9.92286 6.07714 9.29289 6.70711L7.29289 8.70711C7.10536 8.89465 6.851 9 6.58579 9Z" fill="white"/>
<path d="M17.4975 5.53002C18.4616 6.32758 19.2377 7.32813 19.7704 8.46026C20.3031 9.59239 20.5794 10.8282 20.5794 12.0794C20.5794 13.3306 20.3031 14.5664 19.7704 15.6985C19.2377 16.8306 18.4616 17.8312 17.4975 18.6287" stroke="white" stroke-width="3" stroke-linecap="round"/>
<path d="M14.495 9.995C14.8018 10.2488 15.0488 10.5673 15.2183 10.9276C15.3879 11.2879 15.4758 11.6812 15.4758 12.0794C15.4758 12.4776 15.3879 12.8709 15.2183 13.2312C15.0488 13.5915 14.8018 13.9099 14.495 14.1638" stroke="white" stroke-opacity="0.4" stroke-width="3" stroke-linecap="round"/>
</g>
<defs>
<clipPath id="clip0_108_188">
<rect width="24" height="24" fill="white"/>
</clipPath>
</defs>
</svg>
